<svg width="40" height="40" viewBox="0 0 40 40" fill="none" xmlns="http://www.w3.org/2000/svg">
<path d="M3.21914 0.151382C2.46124 0.35453 1.86742 0.698322 1.28141 1.27652C0.695397 1.87034 0.351605 2.45635 0.156269 3.24551C0 3.83933 0 4.14406 0 19.9976C0 35.8511 0 36.1558 0.156269 36.7496C0.351605 37.5388 0.695397 38.1248 1.28141 38.7186C1.87523 39.3046 2.46124 39.6484 3.2504 39.8437C3.84422 40 4.14894 40 20.0024 40C35.8559 40 36.1607 40 36.7545 39.8437C37.5436 39.6484 38.1297 39.3046 38.7235 38.7186C39.3095 38.1248 39.6533 37.5388 39.8486 36.7496C40.0049 36.1558 40.0049 35.8511 40.0049 19.9976C40.0049 4.14406 40.0049 3.83933 39.8486 3.24551C39.6455 2.44072 39.3095 1.86253 38.6844 1.24527C38.0671 0.643631 37.5749 0.35453 36.7545 0.151382C36.1607 -0.00488663 35.8403 -0.00488663 19.9712 0.00292587C4.26615 0.00292587 3.7739 0.0107384 3.21914 0.151382ZM26.136 6.0271C27.7768 6.58967 28.9645 7.73043 29.5583 9.32438C29.7536 9.84788 29.8005 10.1135 29.8318 10.8324C29.9021 12.5201 29.4489 13.6843 28.2456 14.8797L27.8997 15.2257C27.7083 15.417 27.7239 15.7317 27.9331 15.9033C28.7848 16.5909 29.4802 17.7082 29.738 18.7865C29.8318 19.185 29.8552 19.5756 29.8318 20.232C29.7771 21.7009 29.3395 22.6776 28.2847 23.7558C27.308 24.7403 25.9485 25.3029 24.5499 25.3107C23.4091 25.3107 22.1355 24.9044 21.3073 24.2715C21.1041 24.1074 20.9244 23.9824 20.901 23.9824C20.8775 23.9824 20.8619 25.2013 20.8619 26.6937C20.8619 29.8269 20.8229 30.1238 20.2837 31.2099C18.3851 35.0541 12.9469 35.2025 10.806 31.4677C10.4075 30.7801 10.2122 30.0691 10.1731 29.1627C10.1028 27.5454 10.5638 26.3265 11.642 25.2248C11.9624 24.8966 12.2984 24.5919 12.3843 24.545C12.5328 24.459 12.5328 24.4512 12.3453 24.3262C11.9858 24.084 11.1342 23.1542 10.8763 22.7166C10.7357 22.4744 10.5247 22.0212 10.4075 21.7009C10.22 21.1774 10.1966 21.0289 10.1966 19.9976C10.1966 18.9662 10.22 18.8177 10.4075 18.2942C10.5247 17.9739 10.7357 17.5207 10.8763 17.2785C11.1342 16.8409 11.9858 15.9111 12.3453 15.6689C12.5328 15.5439 12.5328 15.5361 12.3843 15.4501C12.2984 15.4032 11.9624 15.0985 11.642 14.7704C10.5638 13.6687 10.1028 12.4498 10.1731 10.8324C10.2044 10.1135 10.2513 9.84788 10.4466 9.32438C10.7591 8.49615 11.1576 7.87889 11.7592 7.30069C12.5328 6.5506 13.5407 6.03491 14.5643 5.86302C14.7831 5.82395 17.3381 5.80051 20.2368 5.80832L24.8512 5.81516C25.2881 5.81581 25.722 5.88738 26.136 6.0271Z" fill="#3A778A"/>
<path d="M14.9234 7.58301C13.564 7.76269 12.3374 8.86426 11.9859 10.2314C11.5405 11.9658 12.4937 13.7705 14.2202 14.4658C14.6265 14.6299 14.7905 14.6455 16.8999 14.6689C18.1328 14.6818 19.1377 13.6831 19.1323 12.4501L19.1265 11.1143L19.1151 9.37205C19.1084 8.35491 18.2843 7.53265 17.2671 7.52832C16.2593 7.52051 15.2046 7.54394 14.9234 7.58301Z" fill="#3A778A"/>
<path d="M22.4332 7.49787C21.4218 7.49676 20.8828 8.05872 20.8719 9.06998C20.8656 9.65931 20.8619 10.3774 20.8619 11.1455V12.4423C20.8619 13.6812 21.8731 14.6818 23.1119 14.6689C25.2135 14.6455 25.3776 14.6299 25.7838 14.4658C27.1432 13.9189 28.0026 12.7549 28.1041 11.3252C28.2369 9.45801 26.8776 7.81738 25.0026 7.5752C24.6335 7.52744 23.437 7.49898 22.4332 7.49787Z" fill="#3A778A"/>
<path d="M14.9234 16.459C14.6187 16.5059 13.8296 16.7949 13.564 16.959C13.1734 17.1934 12.5405 17.8652 12.3218 18.2715C11.2671 20.209 12.1499 22.5371 14.2593 23.3652C14.7046 23.5371 14.8374 23.5449 16.939 23.5762C18.1506 23.5934 19.1421 22.6159 19.1421 21.4041V20.0059V18.4121C19.1421 17.3045 18.2419 16.4078 17.1343 16.4121C16.0249 16.4199 15.0327 16.4434 14.9234 16.459Z" fill="#3A778A"/>
<path d="M23.7604 16.4825C21.9244 16.8731 20.6276 18.7246 20.9244 20.5215C21.2994 22.7637 23.5729 24.1075 25.7369 23.3575C26.5026 23.0918 27.3698 22.3575 27.7291 21.6543C28.9245 19.3184 27.3307 16.5918 24.6901 16.4434C24.3698 16.4278 23.9479 16.4434 23.7604 16.4825Z" fill="#3A778A"/>
<path d="M14.5405 25.4365C12.7046 25.9287 11.5405 27.8428 11.9624 29.6787C12.1889 30.6787 12.9702 31.6396 13.9467 32.1162C14.478 32.374 14.5171 32.3818 15.4702 32.3818C16.4077 32.3818 16.4702 32.374 16.9702 32.1318C17.853 31.7178 18.5483 30.9678 18.9155 30.0381C19.0874 29.5928 19.0952 29.4521 19.1264 27.4365L19.1268 27.4129C19.1438 26.2586 18.2105 25.315 17.0561 25.3193C15.4858 25.3193 14.8608 25.3506 14.5405 25.4365Z" fill="#3A778A"/>
</svg>
