<svg width="40" height="40" viewBox="0 0 40 40" fill="none" xmlns="http://www.w3.org/2000/svg">
<mask id="mask0_185_2" style="mask-type:alpha" maskUnits="userSpaceOnUse" x="0" y="0" width="40" height="40">
<rect width="40" height="40" rx="6" fill="#D9D9D9"/>
</mask>
<g mask="url(#mask0_185_2)">
<path d="M4.46345 0.0562782C2.28104 0.424099 0.403693 2.34146 0.067336 4.55621C0.0125802 4.92403 -0.0108866 9.93265 0.00475789 20.3568L0.0282247 35.6175L0.247248 36.2435C0.865207 37.9887 2.03855 39.1626 3.78291 39.7809L4.40869 40H20.0141H35.6195L36.2453 39.7809C38.0523 39.1391 39.296 37.84 39.8592 36.0088C39.9922 35.5627 40 34.8505 40 19.9655V4.39186L39.781 3.76579C39.163 2.0206 37.9897 0.846703 36.2453 0.228451L35.6195 0.00932312L20.2488 0.00149536C11.5739 -0.00632858 4.69812 0.0171471 4.46345 0.0562782ZM22.3217 8.22659C25.9669 8.90745 29.1583 11.177 30.9653 14.37C33.4215 18.7212 32.9208 24.2385 29.7215 28.0419C28.3761 29.6462 26.71 30.8671 24.817 31.6419C23.8783 32.0253 23.5263 32.0566 23.2682 31.7984L23.0648 31.5949V29.4506C23.0648 27.0637 23.0257 26.8054 22.5642 26.1246L22.2982 25.7333L22.705 25.6785C24.9813 25.3733 26.5222 24.442 27.281 22.8924C27.6721 22.0942 27.8129 21.5542 27.9146 20.4977C28.0006 19.5586 27.9146 18.6508 27.6643 17.9856C27.5078 17.5473 26.9134 16.5456 26.7569 16.4517C26.7022 16.4204 26.7178 16.2482 26.796 15.9508C27.0229 15.09 26.7882 13.1726 26.444 13.1022C25.9199 12.9926 24.6918 13.4074 23.6984 14.0178L23.143 14.3621L22.4547 14.2056C21.1171 13.8926 18.653 13.9239 17.3467 14.2604L16.9009 14.37L16.2985 14.0021C15.2582 13.3761 13.8658 12.9378 13.5138 13.1256C13.4434 13.1569 13.3261 13.4074 13.2557 13.6656C13.0523 14.3934 13.021 15.1056 13.1618 15.7786C13.2713 16.2952 13.2713 16.3734 13.1696 16.5221C12.231 17.7821 11.9806 18.6429 12.0589 20.2394C12.1527 21.9612 12.6064 23.1037 13.592 24.0742C14.0301 24.5124 14.343 24.7472 14.7888 24.9585C15.4303 25.2715 16.5332 25.5924 17.2372 25.6785C17.4719 25.7098 17.6674 25.7489 17.6674 25.7646C17.6674 25.7802 17.5501 25.9446 17.4093 26.1324C17.2607 26.3202 17.1042 26.6489 17.0495 26.8602C16.9947 27.0715 16.9321 27.2828 16.9243 27.3376C16.8774 27.4941 16.103 27.6741 15.4694 27.6741C14.9375 27.6741 14.8045 27.6428 14.3664 27.4158C13.9519 27.2045 13.7876 27.0559 13.3261 26.4376C12.7081 25.6237 12.5047 25.4515 11.9494 25.2402C11.5035 25.0681 11.1046 25.0524 10.909 25.1933C10.7134 25.3341 10.8073 25.4985 11.3392 25.882C11.8946 26.2811 12.2622 26.7506 12.5908 27.4941C13.1931 28.8167 14.1161 29.4036 15.5945 29.4036C15.9856 29.4036 16.4393 29.3802 16.5958 29.3567L16.8852 29.3019V30.4601C16.8852 31.5401 16.8774 31.6262 16.7131 31.7984C16.4002 32.1271 15.7979 31.9862 14.296 31.2349C9.61832 28.8871 6.94311 23.8863 7.61582 18.7369C8.30418 13.4465 12.4891 9.11875 17.7457 8.23441C18.1524 8.16398 18.5748 8.09354 18.6843 8.07789C19.138 7.99963 21.649 8.10137 22.3217 8.22659Z" fill="#3A778A"/>
</g>
</svg>
