<svg width="40" height="32" viewBox="0 0 40 32" fill="none" xmlns="http://www.w3.org/2000/svg">
<path d="M1.89691 0.0500472C1.16181 0.242114 0.512736 0.809964 0.199928 1.55318C-0.050319 2.12103 -0.0424988 3.13147 0.215568 3.68262C0.465815 4.22541 0.919387 4.7014 1.41988 4.95193L1.82653 5.15234H20.0085H38.1905L38.5971 4.95193C39.0976 4.7014 39.5512 4.22541 39.8015 3.68262C40.0595 3.13147 40.0673 2.12103 39.8171 1.55318C39.5825 1.00203 39.1446 0.517688 38.6362 0.250465L38.1905 0.0166443L20.1649 -5.7199e-05C10.2489 -5.7199e-05 2.02986 0.0166443 1.89691 0.0500472Z" fill="white"/>
<path d="M1.78743 13.4946C1.13053 13.7118 0.536199 14.2462 0.21557 14.9226C0.0669864 15.2316 0.0357056 15.432 0.0357056 16.0082C0.0357056 16.6095 0.0669864 16.7765 0.239031 17.1356C0.481457 17.6366 0.911569 18.0875 1.39642 18.3548L1.74833 18.5552H20.0085H38.2687L38.6597 18.3297C39.5278 17.837 39.9891 17.0353 39.9891 16.0082C39.9891 14.9811 39.5278 14.1794 38.6597 13.6867L38.2687 13.4612L20.1258 13.4445C10.1472 13.4362 1.89691 13.4612 1.78743 13.4946Z" fill="white"/>
<path d="M1.3104 27.1399C-0.503892 28.142 -0.41787 30.8058 1.4668 31.8079L1.82653 32H20.0085H38.1905L38.6362 31.7662C39.1446 31.499 39.5825 31.0146 39.8171 30.4635C40.0673 29.8956 40.0595 28.8852 39.8015 28.334C39.5512 27.7912 39.0976 27.3152 38.5971 27.0647L38.1905 26.8643H19.9929H1.80307L1.3104 27.1399Z" fill="white"/>
</svg>
