<svg width="143" height="56" viewBox="0 0 143 56" fill="none" xmlns="http://www.w3.org/2000/svg">
<rect width="143" height="56" rx="16" fill="white"/>
<path d="M12.7978 25.904C11.6108 26.1211 11 27.1732 11 28.3444C11 29.8874 11.7826 32.1892 12.1932 33.2908C12.3513 33.7148 12.542 34.1238 12.7495 34.526L13.9134 36.7832C14.6032 38.1209 15.5061 39.3375 16.5867 40.3852L17.3333 41.1091C18.3706 42.1149 19.6277 43.109 21.0674 42.9866C21.325 42.9648 21.5983 42.8928 21.8702 42.7923C23.3649 42.2396 24.4029 40.9245 25.3058 39.6112L26.1011 38.4545L24.1071 38.8842C23.2855 39.0612 22.4392 39.0928 21.6067 38.9775C20.7988 38.8655 20.0591 38.4516 19.5938 37.7817C19.2204 37.244 18.7977 36.5806 18.5506 36.0141C18.1522 35.1013 17.8106 34.5089 17.4719 33.5738C17.0716 32.4685 16.5475 30.8997 16.4214 30.5208C16.4026 30.4643 16.3836 30.4079 16.3642 30.3515L16.2835 30.1168C15.6437 28.2559 14.7334 25.55 12.7978 25.904Z" fill="#9E1414"/>
<path d="M21.6067 38.9775C22.4392 39.0928 23.2855 39.0612 24.1071 38.8842L26.1011 38.4545L27.5393 36.0141L28.9775 32.8765L29.5169 31.6563L29.6056 31.4555C29.8795 30.8359 30.4932 30.4361 31.1707 30.4361C31.6093 30.4361 32.0313 30.6046 32.3493 30.9067L33.5 32L33.1118 30.7612C32.7563 29.6266 32.2939 28.261 31.1348 27.9958C30.6631 27.8878 30.0066 28.0856 29.6314 28.2248C29.4326 28.2985 29.2453 28.3978 29.062 28.5044C28.0637 29.0852 27.2313 29.9129 26.6449 30.908L24.6629 34.271L21.6067 38.9775Z" fill="#FF761E"/>
<path d="M33.5 32L32.3493 30.9067C32.0313 30.6046 31.6093 30.4361 31.1707 30.4361C30.4932 30.4361 29.8795 30.8359 29.6056 31.4555L29.5169 31.6563C30.5354 31.9855 31.3396 32.775 31.6876 33.7873L31.8539 34.271L32.6754 36.9259C32.8452 37.4749 33.1207 37.9853 33.4864 38.4285L33.7378 38.7333C34.1498 39.2326 34.7054 39.5931 35.3292 39.7659C36.3077 40.037 37.3567 39.8206 38.1481 39.1846L39 38.5L38.3897 38.4869C37.4242 38.4661 36.5023 38.0809 35.809 37.4086C35.5721 37.179 35.3878 36.9007 35.2688 36.5929L34.3708 34.271L33.5 32Z" fill="#3A778A"/>
<path d="M35.809 37.4086C36.5023 38.0809 37.4242 38.4661 38.3897 38.4869L39 38.5L40.1365 36.9332C41.0806 35.6317 41.8122 34.1793 42.2985 32.6468C42.7618 31.1867 43 29.6565 43 28.1246C43 27.1117 42.8969 26.1014 42.6923 25.1093L42.5699 24.5163C42.3779 23.5851 42.0809 22.6787 41.6847 21.8144C41.1269 20.5975 40.3786 19.4774 39.468 18.4963L39.0839 18.0826C38.1036 17.0265 36.9852 16.1076 35.7589 15.3509L35.2062 15.0099C34.1746 14.3734 33.0617 13.8791 31.8977 13.5406C30.6762 13.1852 29.4105 13.0049 28.1383 13.0049H27.6475C26.8574 13.0049 26.0683 13.0634 25.2869 13.18L23.8936 13.3878C22.497 13.5962 21.1401 14.0155 19.8695 14.6315C18.7555 15.1716 17.7184 15.8577 16.7855 16.6717L15.7622 17.5648C14.9882 18.2402 14.3131 19.021 13.7566 19.8844L12.8229 21.3329C12.8062 21.3587 12.7938 21.387 12.7862 21.4168C12.7083 21.7187 13.1002 21.9106 13.291 21.6639L13.5169 21.3719L15.7324 18.9552C16.1723 18.4752 16.6475 18.0288 17.154 17.6196C18.0807 16.8708 19.1114 16.2494 20.2056 15.7779C21.2512 15.3273 22.3567 15.0116 23.4829 14.8436L24.2367 14.7311C25.7105 14.5113 27.2142 14.5212 28.6852 14.7589C30.0682 14.9824 31.4157 15.4071 32.6763 16.0183C33.8012 16.5636 34.8503 17.253 35.7972 18.0691L36.3777 18.5695C37.1931 19.2722 37.9064 20.0853 38.497 20.9853C39.5642 22.6113 40.2042 24.48 40.358 26.4188L40.4831 27.9958L40.3805 29.7413C40.3062 31.0056 39.9838 32.2429 39.4316 33.3827C38.7068 34.8792 37.6076 36.163 36.2406 37.1097L35.809 37.4086Z" fill="#1A2C38"/>
<path d="M51.968 29.5L47.624 12.7H51.464L54.176 25.468L57.44 12.7H61.424L64.568 25.444L67.304 12.7H71.192L66.704 29.5H62.384L59.384 17.764L56.288 29.5H51.968ZM73.4049 29.5V12.7H84.6609V15.604H77.0049V19.564H83.9409V22.348H77.0049V26.596H84.6609V29.5H73.4049ZM87.5143 29.5V12.7H94.6903C95.8583 12.7 96.8423 12.884 97.6423 13.252C98.4423 13.604 99.0503 14.108 99.4662 14.764C99.8983 15.404 100.114 16.164 100.114 17.044C100.114 17.892 99.9303 18.604 99.5623 19.18C99.1943 19.756 98.7063 20.196 98.0983 20.5C97.5063 20.804 96.8503 20.988 96.1303 21.052L96.5143 20.764C97.2983 20.796 97.9863 21.004 98.5782 21.388C99.1702 21.772 99.6343 22.276 99.9703 22.9C100.322 23.508 100.498 24.18 100.498 24.916C100.498 25.828 100.282 26.628 99.8503 27.316C99.4183 28.004 98.7863 28.54 97.9543 28.924C97.1223 29.308 96.1143 29.5 94.9303 29.5H87.5143ZM91.1143 26.572H94.3303C95.1303 26.572 95.7463 26.396 96.1783 26.044C96.6263 25.676 96.8503 25.148 96.8503 24.46C96.8503 23.772 96.6183 23.236 96.1543 22.852C95.7063 22.468 95.0823 22.276 94.2823 22.276H91.1143V26.572ZM91.1143 19.612H94.0663C94.8343 19.612 95.4183 19.436 95.8183 19.084C96.2343 18.732 96.4423 18.236 96.4423 17.596C96.4423 16.956 96.2343 16.46 95.8183 16.108C95.4183 15.74 94.8263 15.556 94.0423 15.556H91.1143V19.612Z" fill="#1A2C38"/>
<path d="M48.8 43.5V26.7H53.744C55.712 26.7 57.328 27.044 58.592 27.732C59.872 28.404 60.816 29.372 61.424 30.636C62.048 31.884 62.36 33.388 62.36 35.148C62.36 36.876 62.048 38.364 61.424 39.612C60.816 40.86 59.872 41.82 58.592 42.492C57.328 43.164 55.712 43.5 53.744 43.5H48.8ZM50.816 41.82H53.696C55.328 41.82 56.624 41.556 57.584 41.028C58.544 40.484 59.232 39.716 59.648 38.724C60.064 37.716 60.272 36.524 60.272 35.148C60.272 33.74 60.064 32.532 59.648 31.524C59.232 30.516 58.544 29.74 57.584 29.196C56.624 28.652 55.328 28.38 53.696 28.38H50.816V41.82ZM70.5074 43.788C69.3714 43.788 68.3634 43.524 67.4834 42.996C66.6194 42.468 65.9394 41.732 65.4434 40.788C64.9474 39.828 64.6994 38.716 64.6994 37.452C64.6994 36.172 64.9394 35.06 65.4194 34.116C65.9154 33.172 66.6034 32.436 67.4834 31.908C68.3794 31.38 69.4034 31.116 70.5554 31.116C71.7394 31.116 72.7394 31.38 73.5554 31.908C74.3874 32.436 75.0194 33.132 75.4514 33.996C75.8994 34.844 76.1234 35.78 76.1234 36.804C76.1234 36.964 76.1234 37.132 76.1234 37.308C76.1234 37.484 76.1154 37.684 76.0994 37.908H66.2114V36.348H74.1554C74.1074 35.244 73.7394 34.38 73.0514 33.756C72.3794 33.132 71.5314 32.82 70.5074 32.82C69.8194 32.82 69.1794 32.98 68.5874 33.3C68.0114 33.604 67.5474 34.06 67.1954 34.668C66.8434 35.26 66.6674 36.004 66.6674 36.9V37.572C66.6674 38.564 66.8434 39.396 67.1954 40.068C67.5634 40.74 68.0354 41.244 68.6114 41.58C69.2034 41.916 69.8354 42.084 70.5074 42.084C71.3554 42.084 72.0514 41.9 72.5954 41.532C73.1554 41.148 73.5554 40.636 73.7954 39.996H75.7874C75.5954 40.716 75.2594 41.364 74.7794 41.94C74.2994 42.516 73.6994 42.972 72.9794 43.308C72.2754 43.628 71.4514 43.788 70.5074 43.788ZM78.8441 43.5V31.404H80.6681L80.7641 33.516C81.1481 32.764 81.6921 32.18 82.3961 31.764C83.1161 31.332 83.9321 31.116 84.8441 31.116C85.7881 31.116 86.6041 31.308 87.2921 31.692C87.9801 32.06 88.5161 32.628 88.9001 33.396C89.2841 34.148 89.4761 35.108 89.4761 36.276V43.5H87.4601V36.492C87.4601 35.276 87.1881 34.364 86.6441 33.756C86.1161 33.148 85.3641 32.844 84.3881 32.844C83.7161 32.844 83.1161 33.012 82.5881 33.348C82.0601 33.668 81.6361 34.14 81.3161 34.764C81.0121 35.372 80.8601 36.132 80.8601 37.044V43.5H78.8441ZM97.4013 49.068C96.3133 49.068 95.3453 48.924 94.4973 48.636C93.6653 48.364 93.0173 47.94 92.5533 47.364C92.0893 46.788 91.8573 46.076 91.8573 45.228C91.8573 44.86 91.9293 44.468 92.0733 44.052C92.2333 43.636 92.4973 43.228 92.8653 42.828C93.2493 42.428 93.7853 42.068 94.4733 41.748L95.8653 42.564C95.0173 42.916 94.4653 43.316 94.2093 43.764C93.9533 44.228 93.8253 44.652 93.8253 45.036C93.8253 45.564 93.9773 46.004 94.2813 46.356C94.5853 46.708 95.0093 46.972 95.5533 47.148C96.0973 47.324 96.7133 47.412 97.4013 47.412C98.0893 47.412 98.6813 47.316 99.1773 47.124C99.6733 46.932 100.057 46.66 100.329 46.308C100.601 45.956 100.737 45.54 100.737 45.06C100.737 44.5 100.529 44.028 100.113 43.644C99.6973 43.276 98.9053 43.06 97.7373 42.996C96.7933 42.932 96.0013 42.844 95.3613 42.732C94.7213 42.62 94.1933 42.492 93.7773 42.348C93.3613 42.188 93.0093 42.012 92.7213 41.82C92.4493 41.628 92.2013 41.428 91.9773 41.22V40.668L94.3053 38.364L96.0573 38.988L93.6573 41.148L93.9693 40.308C94.1453 40.436 94.3133 40.556 94.4733 40.668C94.6333 40.78 94.8493 40.876 95.1213 40.956C95.3933 41.036 95.7693 41.108 96.2493 41.172C96.7453 41.236 97.3933 41.3 98.1933 41.364C99.2973 41.444 100.177 41.636 100.833 41.94C101.505 42.244 101.985 42.652 102.273 43.164C102.577 43.676 102.729 44.284 102.729 44.988C102.729 45.676 102.537 46.324 102.153 46.932C101.785 47.556 101.209 48.068 100.425 48.468C99.6413 48.868 98.6333 49.068 97.4013 49.068ZM97.3773 39.708C96.3693 39.708 95.5053 39.516 94.7853 39.132C94.0813 38.748 93.5453 38.236 93.1773 37.596C92.8093 36.94 92.6253 36.212 92.6253 35.412C92.6253 34.612 92.8093 33.892 93.1773 33.252C93.5613 32.612 94.1053 32.1 94.8093 31.716C95.5133 31.316 96.3693 31.116 97.3773 31.116C98.3853 31.116 99.2413 31.316 99.9453 31.716C100.649 32.1 101.185 32.612 101.553 33.252C101.921 33.892 102.105 34.612 102.105 35.412C102.105 36.212 101.921 36.94 101.553 37.596C101.185 38.236 100.649 38.748 99.9453 39.132C99.2413 39.516 98.3853 39.708 97.3773 39.708ZM97.3773 38.052C98.2413 38.052 98.9213 37.828 99.4173 37.38C99.9133 36.932 100.161 36.276 100.161 35.412C100.161 34.564 99.9133 33.916 99.4173 33.468C98.9213 33.02 98.2413 32.796 97.3773 32.796C96.5293 32.796 95.8413 33.02 95.3133 33.468C94.8013 33.916 94.5453 34.564 94.5453 35.412C94.5453 36.276 94.8013 36.932 95.3133 37.38C95.8253 37.828 96.5133 38.052 97.3773 38.052ZM99.3453 33.108L98.7453 31.404H103.689V32.916L99.3453 33.108ZM110.4 43.788C109.472 43.788 108.656 43.604 107.952 43.236C107.264 42.868 106.728 42.3 106.344 41.532C105.976 40.764 105.792 39.804 105.792 38.652V31.404H107.808V38.436C107.808 39.636 108.072 40.54 108.6 41.148C109.128 41.756 109.872 42.06 110.832 42.06C111.504 42.06 112.112 41.9 112.656 41.58C113.2 41.244 113.624 40.772 113.928 40.164C114.248 39.54 114.408 38.78 114.408 37.884V31.404H116.424V43.5H114.6L114.48 41.388C114.112 42.14 113.568 42.732 112.848 43.164C112.128 43.58 111.312 43.788 110.4 43.788ZM125.07 43.788C123.934 43.788 122.926 43.524 122.046 42.996C121.182 42.468 120.502 41.732 120.006 40.788C119.51 39.828 119.262 38.716 119.262 37.452C119.262 36.172 119.502 35.06 119.982 34.116C120.478 33.172 121.166 32.436 122.046 31.908C122.942 31.38 123.966 31.116 125.118 31.116C126.302 31.116 127.302 31.38 128.118 31.908C128.95 32.436 129.582 33.132 130.014 33.996C130.462 34.844 130.686 35.78 130.686 36.804C130.686 36.964 130.686 37.132 130.686 37.308C130.686 37.484 130.678 37.684 130.662 37.908H120.774V36.348H128.718C128.67 35.244 128.302 34.38 127.614 33.756C126.942 33.132 126.094 32.82 125.07 32.82C124.382 32.82 123.742 32.98 123.15 33.3C122.574 33.604 122.11 34.06 121.758 34.668C121.406 35.26 121.23 36.004 121.23 36.9V37.572C121.23 38.564 121.406 39.396 121.758 40.068C122.126 40.74 122.598 41.244 123.174 41.58C123.766 41.916 124.398 42.084 125.07 42.084C125.918 42.084 126.614 41.9 127.158 41.532C127.718 41.148 128.118 40.636 128.358 39.996H130.35C130.158 40.716 129.822 41.364 129.342 41.94C128.862 42.516 128.262 42.972 127.542 43.308C126.838 43.628 126.014 43.788 125.07 43.788Z" fill="#3A778A"/>
</svg>
