<svg width="155" height="156" viewBox="0 0 155 156" fill="none" xmlns="http://www.w3.org/2000/svg">
<rect width="155" height="156" rx="77.5" fill="white"/>
<path d="M61.4903 112.222C63.2779 112.46 65.093 112.395 66.8588 112.028L74.6067 110.42L79.236 102.852L83.8652 93.1224L85.6011 89.3385L85.8344 88.83C86.7501 86.8341 88.7447 85.5547 90.9407 85.5547C92.3448 85.5547 93.6981 86.0805 94.7338 87.0286L98.4219 90.4043L96.4699 84.4024C95.7894 82.3102 94.754 80.2773 92.948 79.0208C92.2701 78.5491 91.5249 78.1449 90.809 77.9871C89.1734 77.6264 86.8476 78.366 85.7069 78.7934C85.2458 78.9662 84.8073 79.1887 84.3777 79.4295L82.8813 80.2682C80.4912 81.6079 78.4851 83.5389 77.0553 85.8763L69.9775 97.4467L60.1404 112.042L61.4903 112.222Z" fill="#FF761E"/>
<path d="M31.7865 71.5005C27.966 72.1736 26 75.4363 26 79.0681C26 84.6136 29.3833 93.3195 30.3651 95.7291C30.54 96.1582 30.7387 96.5702 30.9574 96.9788L37.4809 109.167C38.3082 110.712 39.384 112.112 40.6651 113.308L48.7822 120.891C50.545 122.538 52.6483 123.827 55.0259 124.234C56.1601 124.429 57.3841 124.558 58.4045 124.474C60.869 124.272 63.7847 122.698 65.6762 121.506C67.0271 120.656 68.1345 119.489 69.062 118.189L74.6067 110.42L66.8588 112.028C65.093 112.395 63.2779 112.46 61.4903 112.222L60.1404 112.042C57.5363 111.694 55.1395 110.391 53.6064 108.257C52.4181 106.604 51.0868 104.582 50.3034 102.852C49.0213 100.022 47.9218 98.1845 46.8315 95.2846C45.4606 91.6384 43.639 86.3654 43.3885 85.6389C43.3685 85.5808 43.3492 85.5258 43.3286 85.4679L40.9687 78.8545C40.2551 76.8547 39.1862 74.966 37.5042 73.6703C35.8867 72.4243 33.7021 71.163 31.7865 71.5005Z" fill="#9E1414"/>
<path d="M98.4219 90.4043L94.7338 87.0286C93.6981 86.0805 92.3448 85.5547 90.9407 85.5547C88.7447 85.5547 86.7501 86.8341 85.8344 88.83L85.6011 89.3385C88.88 90.3595 91.488 92.863 92.6421 96.0974L93.1236 97.4467L95.7391 105.591C96.3044 107.351 97.2149 108.981 98.4174 110.385L99.1238 111.21C100.492 112.808 102.313 113.954 104.345 114.496C107.484 115.334 110.833 114.658 113.402 112.67L116.125 110.561L114.076 110.518C111.017 110.455 108.09 109.265 105.854 107.177C105.092 106.465 104.495 105.594 104.107 104.626L101.225 97.4467L98.4219 90.4043Z" fill="#3A778A"/>
<path d="M105.854 107.177C108.09 109.265 111.017 110.455 114.076 110.518L116.125 110.561L122.782 101.719C123.834 100.322 124.65 98.7616 125.197 97.1006L128.197 87.9931C128.729 86.3778 129 84.6881 129 82.9875V75.3563C129 74.2304 128.881 73.1076 128.645 72.0066L127.078 64.684C126.817 63.4667 126.415 62.2839 125.88 61.1597L123.175 55.4735C122.434 53.916 121.446 52.4886 120.249 51.2464L113.135 43.8624C112.143 42.8327 111.018 41.9407 109.789 41.2101L100.73 35.8251C99.522 35.107 98.2247 34.5512 96.8716 34.172L89.4551 32.0936C88.0497 31.6997 86.597 31.5 85.1375 31.5H76.9079C76.1463 31.5 75.3857 31.5544 74.6318 31.6627L63.0659 33.3249C61.5099 33.5485 59.9953 34.0003 58.5709 34.6655L51.057 38.1751C49.7885 38.7676 48.6033 39.524 47.5317 40.4249L39.3117 47.3358C38.1584 48.3054 37.1478 49.4331 36.3099 50.6854L31.8704 57.3209C31.8148 57.4039 31.7733 57.4955 31.7475 57.5919C31.4928 58.5437 32.7206 59.1658 33.3374 58.3975L34.1011 57.4463L42.5377 48.5801C43.0848 48.0051 43.674 47.4716 44.3003 46.9841L48.6017 43.6356C49.731 42.7565 50.9732 42.0328 52.295 41.4841L58.8564 38.7599C60.0933 38.2464 61.3898 37.8902 62.7154 37.6997L73.3932 36.1651C74.965 35.9392 76.5617 35.9486 78.1307 36.1928L87.4035 37.6365C88.8948 37.8687 90.3457 38.3107 91.7131 38.9494L99.3588 42.5205C100.598 43.0991 101.757 43.8342 102.809 44.7076L109.907 50.6014C111.057 51.5563 112.067 52.6676 112.909 53.9029L117.365 60.4445C118.923 62.7309 119.861 65.3822 120.088 68.1394L120.805 76.8441C120.867 77.6051 120.876 78.3696 120.829 79.1317L120.406 86.0601C120.274 88.2232 119.704 90.3369 118.731 92.273L115.854 97.9952C114.609 100.47 112.744 102.579 110.439 104.117L105.854 107.177Z" fill="#1A2C38"/>
</svg>
